<svg xmlns="http://www.w3.org/2000/svg" xmlns:xlink="http://www.w3.org/1999/xlink" width="460" height="460" viewBox="0 0 460 460">
  <defs>
    <clipPath id="clip-Web_1920_1">
      <rect width="460" height="460"/>
    </clipPath>
  </defs>
  <g id="Web_1920_1" data-name="Web 1920 – 1" clip-path="url(#clip-Web_1920_1)">
    <rect width="460" height="460" fill="#fff"/>
    <g id="Group_1" data-name="Group 1" transform="translate(-809 -175.011)">
      <text id="R_ya" data-name="R  ya" transform="translate(881 468)" fill="#707070" stroke="#707070" stroke-width="2" font-size="130" font-family="Pacifico-Regular, Pacifico"><tspan x="0" y="0" xml:space="preserve">R  ya</tspan></text>
    </g>
    <g id="Group_3" data-name="Group 3" transform="translate(-802.922 -177.011)">
      <path id="Path_1" data-name="Path 1" d="M1019.8,422.68l.931-.6.819-.235H1023l.8.128.782.256.969.448,1.471.746.987.853.987,1.066.857,1.3.335.768.447,1.045.168.938.112.81v1.472l-.112.576v1.621l.13.341.13.192.317.555,3.371,3.924,2.552,2.965,1.974,1.962,3.017,2.794,2.011,1.9,1.676,1.941h.075l.913,1.386.428.981.13.874-.819,1.045-.708-.085-1.043-.6-.652-.512-.615-.725-.857-.874-.652-.832-2.608-3.6-2.719-3.818-6.537-7.443-.764-.576-.875-.128h-.894l-.224.128h-.391l-.559.128a6.941,6.941,0,0,0-.782-.128,7.445,7.445,0,0,1-.82-.128l-1.062-.491-.987-.6-.726-.576-1.285-1.472-.913-1.493-.484-1.024-.447-1.344-.149-.96-.149-1.3-.075-.917.186-.768.279-1.109Z" transform="translate(0 0)" fill="#707070" stroke="#707070" stroke-width="0.01"/>
      <path id="Path_2" data-name="Path 2" d="M1036.16,429.889l2.073-2.244,6.16-6.292.208-.1h.1l.05.1v.138l-.05.085-5.927,7.46.2.213,6.587-6.722.237.071.05.128-.05.213-5.84,7.361.075.227h.2l6.5-6.694.212.071.05.2-5.89,7.474.062.227h.2l6.537-6.708.212.085v.284l-7.446,9.2-.5.411-.511.156-.747.071-1.3-.071h-.486l-.436.3-2.466,2.695-2.441,2.808-2,2.255-1.158,1.4-1.22,1.645-1.083,1.56-1.569,2.227-1.183,1.588-1.2,1.376-1.2,1.205-1.258.823-.784.2-.61-.1-.324-.1-.125-.6.125-.709.174-.468.536-1.205,1.2-1.6,2.266-2.383,2.291-2.071,2-1.844,1.482-1.447,1.245-1.39,2.764-3.106,1.444-1.688,2.154-2.666.1-.284v-.3l-.1-2.113.125-.723.112-.355Z" fill="#7d7373" stroke="#707070" stroke-width="0.1"/>
      <path id="Path_3" data-name="Path 3" d="M1036.16,429.889l2.073-2.244,6.16-6.292.208-.1h.1l.05.1v.138l-.05.085-5.927,7.46.2.213,6.587-6.722.237.071.05.128-.05.213-5.84,7.361.075.227h.2l6.5-6.694.212.071.05.2-5.89,7.474.062.227h.2l6.537-6.708.212.085v.284l-7.446,9.2-.5.411-.511.156-.747.071-1.3-.071h-.486l-.436.3-2.466,2.695-2.441,2.808-2,2.255-1.158,1.4-1.22,1.645-1.083,1.56-1.569,2.227-1.183,1.588-1.2,1.376-1.2,1.205-1.258.823-.784.2-.61-.1-.324-.1-.125-.6.125-.709.174-.468.536-1.205,1.2-1.6,2.266-2.383,2.291-2.071,2-1.844,1.482-1.447,1.245-1.39,2.764-3.106,1.444-1.688,2.154-2.666.1-.284v-.3l-.1-2.113.125-.723.112-.355Z" transform="matrix(-0.966, 0.259, -0.259, -0.966, 2285.425, 548.247)" fill="#7d7373" stroke="#707070" stroke-width="0.1"/>
    </g>
    <text id="Food" transform="translate(122.5 335.989)" fill="#707070" stroke="#707070" stroke-width="2" font-size="36" font-family="Pacifico-Regular, Pacifico"><tspan x="0" y="0">Food</tspan></text>
    <g id="Ellipse_3" data-name="Ellipse 3" transform="translate(197 227.989)" fill="none" stroke="#707070" stroke-width="13">
      <circle cx="33" cy="33" r="33" stroke="none"/>
      <circle cx="33" cy="33" r="26.5" fill="none"/>
    </g>
    <path id="Path_4" data-name="Path 4" d="M868.36,315.029l-13.161,3.64-5.881,2.52-6.441,2.52-6.721,2.8-7.841,2.52-8.961,1.68H802.834l6.721,2.8,9.8,1.12h8.961l6.161-1.12,10.921-2.8,8.4-4.2,9.241-2.8,7.561-.56,7.841.56,8.121,1.12,5.32,2.8,11.761,5.881,4.48,6.721,1.834,5.474,1.527,8.807-1.527,7.561-6.594,11.481-11.481,7.561,7.841-12.041,2.24-8.4v-6.161l-1.12-2.8-1.12,2.8-2.52,10.641-3.92,5.881-6.721,7.281-10.641,5.32-6.441,2.24-7.841,1.68-12.321,1.68h29.123v15.681l1.96,12.6-18.762-3.08H842.878l-23.522,4.48-18.482,7.841v-9.241l-1.96-7.561L795.833,401l-2.8-7-2.52-3.08-2.8-3.36,2.8,7.561,2.52,17.362v28.843h2.8l10.641-3.08,18.482-3.92,16.521-1.96h41.515l-8.45-2.214-6.182-2.154-8.234-1.233-10.808-1.12H827.981l-7.953,1.12,4.928-1.916,9.653-1.988,9.445-.994h28l7.125.994,8.616.828v-2.817l-2.485-10.909-.828-21.567,10.936-2.651,11.93-7.456,8.45-10.936,2.983-6.674V353.1l-1.988-10.6-1.988-4.639-3.322-4.343-2.478-4.771-5.643-5.03-6.161-3.917-5.32-1.823-5.32-1.988-5.889-.953-1.634-3.954-2.553-4-3.307-4.583-3.365-3.887-3.307-3.307-4.409-2.843-4.757-2.321-5.163-2.089-6.5-1.914-5.917-.87H831.93l-7.078.522-7.774,1.624-8.064,1.914-6.44,3.249-7.252,4.061-6.382,5.627L785,306.434l-3.945,4.931-2.727,4.641-2.263,2.379-5.163.522-5.917-.522h-4.235l-4.7.522-3.365.638-4.409,2.089-4,1.914-3.017,2.727-3.074,2.666-2.843,3.726-2.255,3.53-2.745,5.785-1.373,5.589-.686,2.647v11.667l1.078,2.647,2.157,5.491,2.255,2.941,2.353,2.843,3.137,3.235,3.726,2.549,3.824,1.667,5.294,2.157,6.177,1.275h5.981l10.589-.882,7.451-1.177,7.157-1.863,6.376-2.157,7.056-.882,7.746-.784h4.118l-3.137-1.765L805.242,376l-11.177,1.177-10.1,1.765-9.118,1.667H759.259l-5.687-2.059-5.1-2.745-3.922-3.432-3.628-4.706-2.745-5.2-.392-11.667,1.667-6.569,3.432-7.353,2.059-3.334,3.726-4.02,3.039-3.254,2.843-1.06,2.353-1.667,6.275-.882h4.608l4.02,1.863,2.451,1.746,1.078,3.842,1.177,5,1.81,4.216,2.014,2.549,2.255,2.353,3.432,2.451h2.157l-1.275-1.765-2.451-3.824-1.177-5.491-.686-7.353,1.863-5.589,2.059-4.281,3.432-4.445,4.51-4.9,5-4.608,7.353-4.118,7.451-3.682,7.255-2.1,6.177-1.177h14.315l5.294,1.945,4.874,2.075,5.163,2.941,3.787,3.039,3.726,4.412,2.157,3.53,1.765,3.039Z" transform="translate(-608.373 -220.332)" fill="#707070" stroke="#707070" stroke-width="1"/>
    <g id="Path_5" data-name="Path 5" transform="translate(46 42.989)" fill="none">
      <path d="M179.629,0c99.206,0,179.629,83.728,179.629,187.011S278.836,374.022,179.629,374.022,0,290.295,0,187.011,80.423,0,179.629,0Z" stroke="none"/>
      <path d="M 179.6291046142578 9 C 85.54388427734375 9 9 88.85546875 9 187.0111236572266 C 9 285.1668090820312 85.54388427734375 365.0222473144531 179.6291046142578 365.0222473144531 C 273.7143249511719 365.0222473144531 350.2582092285156 285.1668090820312 350.2582092285156 187.0111236572266 C 350.2582092285156 88.85546875 273.7143249511719 9 179.6291046142578 9 M 179.6291046142578 0 C 278.8355102539062 0 359.2582092285156 83.72772216796875 359.2582092285156 187.0111236572266 C 359.2582092285156 290.2944946289062 278.8355102539062 374.0222473144531 179.6291046142578 374.0222473144531 C 80.4227294921875 374.0222473144531 0 290.2944946289062 0 187.0111236572266 C 0 83.72772216796875 80.4227294921875 0 179.6291046142578 0 Z" stroke="none" fill="#707070"/>
    </g>
  </g>
</svg>
